<mxfile host="app.diagrams.net" modified="2021-08-01T13:46:01.693Z" agent="5.0 (Windows NT 10.0; Win64; x64) AppleWebKit/537.36 (KHTML, like Gecko) Chrome/92.0.4515.107 Safari/537.36 Edg/92.0.902.55" etag="b6Tgiv87etEAfctEM4bR" version="14.9.0" type="github">
  <diagram id="GGeDkTuLAUOPhelpGjf-" name="第 1 页">
    <mxGraphModel dx="1981" dy="1424" grid="1" gridSize="10" guides="1" tooltips="1" connect="1" arrows="1" fold="1" page="1" pageScale="1" pageWidth="3300" pageHeight="4681" math="0" shadow="0">
      <root>
        <mxCell id="0" />
        <mxCell id="1" parent="0" />
        <mxCell id="nQd0Cg9sy-hqQfareskZ-1" value="" style="endArrow=classic;html=1;strokeWidth=3;dashed=1;" edge="1" parent="1">
          <mxGeometry width="50" height="50" relative="1" as="geometry">
            <mxPoint x="250" y="90" as="sourcePoint" />
            <mxPoint x="630" y="90" as="targetPoint" />
          </mxGeometry>
        </mxCell>
        <mxCell id="nQd0Cg9sy-hqQfareskZ-2" value="" style="endArrow=none;html=1;strokeWidth=3;" edge="1" parent="1">
          <mxGeometry width="50" height="50" relative="1" as="geometry">
            <mxPoint x="310" y="90" as="sourcePoint" />
            <mxPoint x="310" y="70" as="targetPoint" />
          </mxGeometry>
        </mxCell>
        <mxCell id="nQd0Cg9sy-hqQfareskZ-4" value="" style="endArrow=none;html=1;strokeWidth=3;" edge="1" parent="1">
          <mxGeometry width="50" height="50" relative="1" as="geometry">
            <mxPoint x="430" y="90" as="sourcePoint" />
            <mxPoint x="430" y="70" as="targetPoint" />
          </mxGeometry>
        </mxCell>
        <mxCell id="nQd0Cg9sy-hqQfareskZ-5" value="" style="endArrow=none;html=1;strokeWidth=3;" edge="1" parent="1">
          <mxGeometry width="50" height="50" relative="1" as="geometry">
            <mxPoint x="540" y="90" as="sourcePoint" />
            <mxPoint x="540" y="70" as="targetPoint" />
          </mxGeometry>
        </mxCell>
        <mxCell id="nQd0Cg9sy-hqQfareskZ-6" value="&lt;font style=&quot;font-size: 18px&quot; face=&quot;JetBrains Mono&quot;&gt;&lt;b&gt;0:00&lt;/b&gt;&lt;/font&gt;" style="text;html=1;align=center;verticalAlign=middle;resizable=0;points=[];autosize=1;strokeColor=none;" vertex="1" parent="1">
          <mxGeometry x="280" y="40" width="60" height="20" as="geometry" />
        </mxCell>
        <mxCell id="nQd0Cg9sy-hqQfareskZ-7" value="&lt;font style=&quot;font-size: 18px&quot; face=&quot;JetBrains Mono&quot;&gt;&lt;b&gt;1:00&lt;/b&gt;&lt;/font&gt;" style="text;html=1;align=center;verticalAlign=middle;resizable=0;points=[];autosize=1;strokeColor=none;" vertex="1" parent="1">
          <mxGeometry x="430" y="40" width="60" height="20" as="geometry" />
        </mxCell>
        <mxCell id="nQd0Cg9sy-hqQfareskZ-8" value="&lt;font style=&quot;font-size: 18px&quot; face=&quot;JetBrains Mono&quot;&gt;&lt;b&gt;0:59&lt;/b&gt;&lt;/font&gt;" style="text;html=1;align=center;verticalAlign=middle;resizable=0;points=[];autosize=1;strokeColor=none;" vertex="1" parent="1">
          <mxGeometry x="370" y="40" width="60" height="20" as="geometry" />
        </mxCell>
        <mxCell id="nQd0Cg9sy-hqQfareskZ-9" value="" style="shape=curlyBracket;whiteSpace=wrap;html=1;rounded=1;flipH=1;direction=north;strokeWidth=3;" vertex="1" parent="1">
          <mxGeometry x="408" y="100" width="44" height="10" as="geometry" />
        </mxCell>
        <mxCell id="nQd0Cg9sy-hqQfareskZ-11" value="" style="rounded=1;whiteSpace=wrap;html=1;strokeWidth=3;dashed=1;" vertex="1" parent="1">
          <mxGeometry x="385" y="120" width="90" height="30" as="geometry" />
        </mxCell>
        <mxCell id="nQd0Cg9sy-hqQfareskZ-12" value="&lt;font style=&quot;font-size: 18px&quot;&gt;&lt;b&gt;50&lt;/b&gt;&lt;/font&gt;" style="text;html=1;align=center;verticalAlign=middle;resizable=0;points=[];autosize=1;strokeColor=none;fontColor=#FF0000;" vertex="1" parent="1">
          <mxGeometry x="385" y="125" width="40" height="20" as="geometry" />
        </mxCell>
        <mxCell id="nQd0Cg9sy-hqQfareskZ-14" value="&lt;font style=&quot;font-size: 18px&quot;&gt;&lt;b&gt;50&lt;/b&gt;&lt;/font&gt;" style="text;html=1;align=center;verticalAlign=middle;resizable=0;points=[];autosize=1;strokeColor=none;" vertex="1" parent="1">
          <mxGeometry x="434" y="125" width="40" height="20" as="geometry" />
        </mxCell>
        <mxCell id="nQd0Cg9sy-hqQfareskZ-15" value="&lt;font style=&quot;font-size: 18px&quot;&gt;&lt;b&gt;50&lt;/b&gt;&lt;/font&gt;" style="text;html=1;align=center;verticalAlign=middle;resizable=0;points=[];autosize=1;strokeColor=none;fontColor=#FF0000;" vertex="1" parent="1">
          <mxGeometry x="434" y="125" width="40" height="20" as="geometry" />
        </mxCell>
        <mxCell id="nQd0Cg9sy-hqQfareskZ-64" value="" style="shape=image;html=1;verticalAlign=top;verticalLabelPosition=bottom;labelBackgroundColor=#ffffff;imageAspect=0;aspect=fixed;image=https://cdn3.iconfinder.com/data/icons/minecraft-icons/128/bucket_empty.png;dashed=1;fontSize=20;fontColor=#FF0000;strokeWidth=3;" vertex="1" parent="1">
          <mxGeometry x="350" y="670" width="160" height="160" as="geometry" />
        </mxCell>
        <mxCell id="nQd0Cg9sy-hqQfareskZ-66" value="" style="rounded=0;whiteSpace=wrap;html=1;fontSize=20;fontColor=#ffffff;strokeWidth=3;fillColor=#a0522d;strokeColor=#6D1F00;" vertex="1" parent="1">
          <mxGeometry x="406" y="750" width="30" height="40" as="geometry" />
        </mxCell>
        <mxCell id="nQd0Cg9sy-hqQfareskZ-71" value="" style="rounded=0;whiteSpace=wrap;html=1;fontSize=20;fontColor=#ffffff;strokeWidth=3;fillColor=#a0522d;strokeColor=#6D1F00;" vertex="1" parent="1">
          <mxGeometry x="412" y="756" width="30" height="40" as="geometry" />
        </mxCell>
        <mxCell id="nQd0Cg9sy-hqQfareskZ-72" value="" style="rounded=0;whiteSpace=wrap;html=1;fontSize=20;fontColor=#ffffff;strokeWidth=3;fillColor=#a0522d;strokeColor=#6D1F00;" vertex="1" parent="1">
          <mxGeometry x="419" y="762" width="30" height="40" as="geometry" />
        </mxCell>
        <mxCell id="nQd0Cg9sy-hqQfareskZ-73" value="" style="rounded=0;whiteSpace=wrap;html=1;fontSize=20;fontColor=#ffffff;strokeWidth=3;fillColor=#a0522d;strokeColor=#6D1F00;" vertex="1" parent="1">
          <mxGeometry x="424" y="768" width="30" height="40" as="geometry" />
        </mxCell>
        <mxCell id="nQd0Cg9sy-hqQfareskZ-78" value="" style="group" vertex="1" connectable="0" parent="1">
          <mxGeometry x="430" y="570" width="60" height="70" as="geometry" />
        </mxCell>
        <mxCell id="nQd0Cg9sy-hqQfareskZ-74" value="" style="rounded=0;whiteSpace=wrap;html=1;fontSize=20;fontColor=#ffffff;strokeWidth=3;fillColor=#a0522d;strokeColor=#6D1F00;" vertex="1" parent="nQd0Cg9sy-hqQfareskZ-78">
          <mxGeometry width="30" height="40" as="geometry" />
        </mxCell>
        <mxCell id="nQd0Cg9sy-hqQfareskZ-75" value="" style="rounded=0;whiteSpace=wrap;html=1;fontSize=20;fontColor=#ffffff;strokeWidth=3;fillColor=#a0522d;strokeColor=#6D1F00;" vertex="1" parent="nQd0Cg9sy-hqQfareskZ-78">
          <mxGeometry x="10" y="10" width="30" height="40" as="geometry" />
        </mxCell>
        <mxCell id="nQd0Cg9sy-hqQfareskZ-76" value="" style="rounded=0;whiteSpace=wrap;html=1;fontSize=20;fontColor=#ffffff;strokeWidth=3;fillColor=#a0522d;strokeColor=#6D1F00;" vertex="1" parent="nQd0Cg9sy-hqQfareskZ-78">
          <mxGeometry x="20" y="20" width="30" height="40" as="geometry" />
        </mxCell>
        <mxCell id="nQd0Cg9sy-hqQfareskZ-77" value="" style="rounded=0;whiteSpace=wrap;html=1;fontSize=20;fontColor=#ffffff;strokeWidth=3;fillColor=#a0522d;strokeColor=#6D1F00;" vertex="1" parent="nQd0Cg9sy-hqQfareskZ-78">
          <mxGeometry x="30" y="30" width="30" height="40" as="geometry" />
        </mxCell>
        <mxCell id="nQd0Cg9sy-hqQfareskZ-80" value="" style="group" vertex="1" connectable="0" parent="1">
          <mxGeometry x="90" y="160" width="390" height="270" as="geometry" />
        </mxCell>
        <mxCell id="nQd0Cg9sy-hqQfareskZ-16" value="" style="outlineConnect=0;fontColor=#232F3E;gradientColor=none;strokeColor=#232F3E;fillColor=#ffffff;dashed=0;verticalLabelPosition=bottom;verticalAlign=top;align=center;html=1;fontSize=12;fontStyle=0;aspect=fixed;shape=mxgraph.aws4.resourceIcon;resIcon=mxgraph.aws4.bucket_with_objects;" vertex="1" parent="nQd0Cg9sy-hqQfareskZ-80">
          <mxGeometry x="108" y="100" width="170" height="170" as="geometry" />
        </mxCell>
        <mxCell id="nQd0Cg9sy-hqQfareskZ-79" value="" style="group" vertex="1" connectable="0" parent="nQd0Cg9sy-hqQfareskZ-80">
          <mxGeometry width="390" height="240" as="geometry" />
        </mxCell>
        <mxCell id="nQd0Cg9sy-hqQfareskZ-21" value="" style="endArrow=none;dashed=1;html=1;dashPattern=1 3;strokeWidth=2;fontSize=16;fontColor=#FF0000;startArrow=none;" edge="1" parent="nQd0Cg9sy-hqQfareskZ-79" source="nQd0Cg9sy-hqQfareskZ-20">
          <mxGeometry width="50" height="50" relative="1" as="geometry">
            <mxPoint x="102" y="44.5" as="sourcePoint" />
            <mxPoint x="152" y="44.5" as="targetPoint" />
            <Array as="points">
              <mxPoint x="132" y="44.5" />
            </Array>
          </mxGeometry>
        </mxCell>
        <mxCell id="nQd0Cg9sy-hqQfareskZ-22" value="" style="endArrow=none;dashed=1;html=1;dashPattern=1 3;strokeWidth=2;fontSize=16;fontColor=#FF0000;" edge="1" parent="nQd0Cg9sy-hqQfareskZ-79">
          <mxGeometry width="50" height="50" relative="1" as="geometry">
            <mxPoint x="102" y="50" as="sourcePoint" />
            <mxPoint x="152" y="50" as="targetPoint" />
            <Array as="points">
              <mxPoint x="132" y="50" />
            </Array>
          </mxGeometry>
        </mxCell>
        <mxCell id="nQd0Cg9sy-hqQfareskZ-26" value="" style="shape=partialRectangle;whiteSpace=wrap;html=1;left=0;right=0;fillColor=none;dashed=1;fontSize=16;fontColor=#FF0000;strokeWidth=3;rotation=90;" vertex="1" parent="nQd0Cg9sy-hqQfareskZ-79">
          <mxGeometry x="165" y="65" width="50" height="40" as="geometry" />
        </mxCell>
        <mxCell id="nQd0Cg9sy-hqQfareskZ-28" value="" style="endArrow=none;html=1;fontSize=16;fontColor=#FF0000;strokeWidth=3;" edge="1" parent="nQd0Cg9sy-hqQfareskZ-79">
          <mxGeometry width="50" height="50" relative="1" as="geometry">
            <mxPoint x="210" y="45" as="sourcePoint" />
            <mxPoint x="210" y="30" as="targetPoint" />
          </mxGeometry>
        </mxCell>
        <mxCell id="nQd0Cg9sy-hqQfareskZ-29" value="" style="endArrow=none;html=1;fontSize=16;fontColor=#FF0000;strokeWidth=3;" edge="1" parent="nQd0Cg9sy-hqQfareskZ-79">
          <mxGeometry width="50" height="50" relative="1" as="geometry">
            <mxPoint x="180" y="30" as="sourcePoint" />
            <mxPoint x="200" y="30" as="targetPoint" />
          </mxGeometry>
        </mxCell>
        <mxCell id="nQd0Cg9sy-hqQfareskZ-37" value="" style="endArrow=none;dashed=1;html=1;dashPattern=1 3;strokeWidth=2;fontSize=16;fontColor=#FF0000;" edge="1" parent="nQd0Cg9sy-hqQfareskZ-79">
          <mxGeometry width="50" height="50" relative="1" as="geometry">
            <mxPoint x="200" y="50" as="sourcePoint" />
            <mxPoint x="182" y="74.5" as="targetPoint" />
            <Array as="points">
              <mxPoint x="182" y="100" />
            </Array>
          </mxGeometry>
        </mxCell>
        <mxCell id="nQd0Cg9sy-hqQfareskZ-38" value="" style="endArrow=none;dashed=1;html=1;dashPattern=1 3;strokeWidth=2;fontSize=16;fontColor=#FF0000;" edge="1" parent="nQd0Cg9sy-hqQfareskZ-79" target="nQd0Cg9sy-hqQfareskZ-26">
          <mxGeometry width="50" height="50" relative="1" as="geometry">
            <mxPoint x="205" y="65" as="sourcePoint" />
            <mxPoint x="255" y="65" as="targetPoint" />
            <Array as="points">
              <mxPoint x="190" y="85" />
              <mxPoint x="180" y="60" />
            </Array>
          </mxGeometry>
        </mxCell>
        <mxCell id="nQd0Cg9sy-hqQfareskZ-39" value="" style="endArrow=none;dashed=1;html=1;dashPattern=1 3;strokeWidth=2;fontSize=16;fontColor=#FF0000;" edge="1" parent="nQd0Cg9sy-hqQfareskZ-79">
          <mxGeometry width="50" height="50" relative="1" as="geometry">
            <mxPoint x="160" y="50" as="sourcePoint" />
            <mxPoint x="200" y="50" as="targetPoint" />
            <Array as="points">
              <mxPoint x="190" y="50" />
            </Array>
          </mxGeometry>
        </mxCell>
        <mxCell id="nQd0Cg9sy-hqQfareskZ-20" value="" style="shape=partialRectangle;whiteSpace=wrap;html=1;left=0;right=0;fillColor=none;dashed=1;fontSize=16;fontColor=#FF0000;strokeWidth=3;" vertex="1" parent="nQd0Cg9sy-hqQfareskZ-79">
          <mxGeometry x="85" y="30" width="80" height="30" as="geometry" />
        </mxCell>
        <mxCell id="nQd0Cg9sy-hqQfareskZ-40" value="" style="endArrow=none;dashed=1;html=1;dashPattern=1 3;strokeWidth=2;fontSize=16;fontColor=#FF0000;" edge="1" parent="nQd0Cg9sy-hqQfareskZ-79" target="nQd0Cg9sy-hqQfareskZ-20">
          <mxGeometry width="50" height="50" relative="1" as="geometry">
            <mxPoint x="102" y="44.5" as="sourcePoint" />
            <mxPoint x="152" y="44.5" as="targetPoint" />
            <Array as="points" />
          </mxGeometry>
        </mxCell>
        <mxCell id="nQd0Cg9sy-hqQfareskZ-41" value="" style="endArrow=none;dashed=1;html=1;dashPattern=1 3;strokeWidth=2;fontSize=16;fontColor=#FF0000;" edge="1" parent="nQd0Cg9sy-hqQfareskZ-79" target="nQd0Cg9sy-hqQfareskZ-26">
          <mxGeometry width="50" height="50" relative="1" as="geometry">
            <mxPoint x="180" y="50" as="sourcePoint" />
            <mxPoint x="210" y="60" as="targetPoint" />
            <Array as="points">
              <mxPoint x="200" y="60" />
              <mxPoint x="200" y="100" />
            </Array>
          </mxGeometry>
        </mxCell>
        <mxCell id="nQd0Cg9sy-hqQfareskZ-42" value="" style="endArrow=none;dashed=1;html=1;dashPattern=1 3;strokeWidth=2;fontSize=16;fontColor=#FF0000;" edge="1" parent="nQd0Cg9sy-hqQfareskZ-79">
          <mxGeometry width="50" height="50" relative="1" as="geometry">
            <mxPoint x="180" y="70" as="sourcePoint" />
            <mxPoint x="190" y="110" as="targetPoint" />
            <Array as="points">
              <mxPoint x="210" y="70" />
            </Array>
          </mxGeometry>
        </mxCell>
        <mxCell id="nQd0Cg9sy-hqQfareskZ-43" value="" style="endArrow=none;dashed=1;html=1;dashPattern=1 3;strokeWidth=2;fontSize=16;fontColor=#FF0000;" edge="1" parent="nQd0Cg9sy-hqQfareskZ-79">
          <mxGeometry width="50" height="50" relative="1" as="geometry">
            <mxPoint x="190" y="80" as="sourcePoint" />
            <mxPoint x="200" y="40" as="targetPoint" />
            <Array as="points">
              <mxPoint x="170" y="50" />
            </Array>
          </mxGeometry>
        </mxCell>
        <mxCell id="nQd0Cg9sy-hqQfareskZ-44" value="" style="endArrow=none;dashed=1;html=1;dashPattern=1 3;strokeWidth=2;fontSize=16;fontColor=#FF0000;" edge="1" parent="nQd0Cg9sy-hqQfareskZ-79">
          <mxGeometry width="50" height="50" relative="1" as="geometry">
            <mxPoint x="200" y="90" as="sourcePoint" />
            <mxPoint x="180" y="40" as="targetPoint" />
            <Array as="points">
              <mxPoint x="180" y="110" />
            </Array>
          </mxGeometry>
        </mxCell>
        <mxCell id="nQd0Cg9sy-hqQfareskZ-45" value="" style="endArrow=none;dashed=1;html=1;dashPattern=1 3;strokeWidth=2;fontSize=16;fontColor=#FF0000;startArrow=none;" edge="1" parent="nQd0Cg9sy-hqQfareskZ-79" source="nQd0Cg9sy-hqQfareskZ-53">
          <mxGeometry width="50" height="50" relative="1" as="geometry">
            <mxPoint x="252" y="224.5" as="sourcePoint" />
            <mxPoint x="302" y="224.5" as="targetPoint" />
            <Array as="points">
              <mxPoint x="282" y="224.5" />
            </Array>
          </mxGeometry>
        </mxCell>
        <mxCell id="nQd0Cg9sy-hqQfareskZ-46" value="" style="endArrow=none;dashed=1;html=1;dashPattern=1 3;strokeWidth=2;fontSize=16;fontColor=#FF0000;" edge="1" parent="nQd0Cg9sy-hqQfareskZ-79">
          <mxGeometry width="50" height="50" relative="1" as="geometry">
            <mxPoint x="252" y="230" as="sourcePoint" />
            <mxPoint x="302" y="230" as="targetPoint" />
            <Array as="points">
              <mxPoint x="282" y="230" />
            </Array>
          </mxGeometry>
        </mxCell>
        <mxCell id="nQd0Cg9sy-hqQfareskZ-53" value="" style="shape=partialRectangle;whiteSpace=wrap;html=1;left=0;right=0;fillColor=none;dashed=1;fontSize=16;fontColor=#FF0000;strokeWidth=3;" vertex="1" parent="nQd0Cg9sy-hqQfareskZ-79">
          <mxGeometry x="235" y="210" width="80" height="30" as="geometry" />
        </mxCell>
        <mxCell id="nQd0Cg9sy-hqQfareskZ-54" value="" style="endArrow=none;dashed=1;html=1;dashPattern=1 3;strokeWidth=2;fontSize=16;fontColor=#FF0000;" edge="1" parent="nQd0Cg9sy-hqQfareskZ-79" target="nQd0Cg9sy-hqQfareskZ-53">
          <mxGeometry width="50" height="50" relative="1" as="geometry">
            <mxPoint x="252" y="224.5" as="sourcePoint" />
            <mxPoint x="302" y="224.5" as="targetPoint" />
            <Array as="points" />
          </mxGeometry>
        </mxCell>
        <mxCell id="nQd0Cg9sy-hqQfareskZ-59" value="" style="endArrow=classic;html=1;fontSize=16;fontColor=#FF0000;strokeWidth=3;" edge="1" parent="nQd0Cg9sy-hqQfareskZ-79">
          <mxGeometry width="50" height="50" relative="1" as="geometry">
            <mxPoint x="40" y="10" as="sourcePoint" />
            <mxPoint x="80" y="50" as="targetPoint" />
          </mxGeometry>
        </mxCell>
        <mxCell id="nQd0Cg9sy-hqQfareskZ-60" value="水" style="text;html=1;align=center;verticalAlign=middle;resizable=0;points=[];autosize=1;strokeColor=none;fontSize=20;fontColor=#FF0000;fontStyle=1" vertex="1" parent="nQd0Cg9sy-hqQfareskZ-79">
          <mxGeometry width="40" height="30" as="geometry" />
        </mxCell>
        <mxCell id="nQd0Cg9sy-hqQfareskZ-62" value="" style="endArrow=classic;html=1;fontSize=16;fontColor=#FF0000;strokeWidth=3;" edge="1" parent="nQd0Cg9sy-hqQfareskZ-79">
          <mxGeometry width="50" height="50" relative="1" as="geometry">
            <mxPoint x="330" y="220" as="sourcePoint" />
            <mxPoint x="390" y="240" as="targetPoint" />
          </mxGeometry>
        </mxCell>
        <mxCell id="nQd0Cg9sy-hqQfareskZ-81" value="" style="html=1;shadow=0;dashed=0;align=center;verticalAlign=middle;shape=mxgraph.arrows2.arrow;dy=0.53;dx=28;direction=south;notch=0;fontSize=20;fontColor=#ffffff;strokeWidth=3;fillColor=#647687;strokeColor=#314354;" vertex="1" parent="1">
          <mxGeometry x="415" y="650" width="30" height="50" as="geometry" />
        </mxCell>
        <mxCell id="nQd0Cg9sy-hqQfareskZ-82" value="&lt;b&gt;令牌&lt;span style=&quot;color: rgba(0 , 0 , 0 , 0) ; font-family: monospace ; font-size: 0px&quot;&gt;%3CmxGraphModel%3E%3Croot%3E%3CmxCell%20id%3D%220%22%2F%3E%3CmxCell%20id%3D%221%22%20parent%3D%220%22%2F%3E%3CmxCell%20id%3D%222%22%20value%3D%22%22%20style%3D%22rounded%3D0%3BwhiteSpace%3Dwrap%3Bhtml%3D1%3BfontSize%3D20%3BfontColor%3D%23ffffff%3BstrokeWidth%3D3%3BfillColor%3D%23a0522d%3BstrokeColor%3D%236D1F00%3B%22%20vertex%3D%221%22%20parent%3D%221%22%3E%3CmxGeometry%20x%3D%22440%22%20y%3D%22970%22%20width%3D%2230%22%20height%3D%2240%22%20as%3D%22geometry%22%2F%3E%3C%2FmxCell%3E%3C%2Froot%3E%3C%2FmxGraphModel%3E&lt;/span&gt;&lt;/b&gt;" style="text;html=1;align=center;verticalAlign=middle;resizable=0;points=[];autosize=1;strokeColor=none;fontSize=20;fontColor=#FF0000;" vertex="1" parent="1">
          <mxGeometry x="355" y="565" width="60" height="40" as="geometry" />
        </mxCell>
        <mxCell id="nQd0Cg9sy-hqQfareskZ-88" value="" style="group" vertex="1" connectable="0" parent="1">
          <mxGeometry x="157" y="830" width="145" height="70" as="geometry" />
        </mxCell>
        <mxCell id="nQd0Cg9sy-hqQfareskZ-84" value="" style="rounded=0;whiteSpace=wrap;html=1;fontSize=20;strokeWidth=3;fillColor=#b1ddf0;strokeColor=#10739e;" vertex="1" parent="1">
          <mxGeometry x="144" y="768" width="30" height="40" as="geometry" />
        </mxCell>
        <mxCell id="nQd0Cg9sy-hqQfareskZ-89" value="" style="rounded=0;whiteSpace=wrap;html=1;fontSize=20;strokeWidth=3;fillColor=#b1ddf0;strokeColor=#10739e;" vertex="1" parent="1">
          <mxGeometry x="181" y="768" width="30" height="40" as="geometry" />
        </mxCell>
        <mxCell id="nQd0Cg9sy-hqQfareskZ-91" value="" style="rounded=0;whiteSpace=wrap;html=1;fontSize=20;strokeWidth=3;fillColor=#b1ddf0;strokeColor=#10739e;" vertex="1" parent="1">
          <mxGeometry x="218" y="768" width="30" height="40" as="geometry" />
        </mxCell>
        <mxCell id="nQd0Cg9sy-hqQfareskZ-95" value="" style="rounded=0;whiteSpace=wrap;html=1;fontSize=20;strokeWidth=3;fillColor=#b1ddf0;strokeColor=#10739e;" vertex="1" parent="1">
          <mxGeometry x="256" y="768" width="30" height="40" as="geometry" />
        </mxCell>
        <mxCell id="nQd0Cg9sy-hqQfareskZ-98" value="" style="html=1;shadow=0;dashed=0;align=center;verticalAlign=middle;shape=mxgraph.arrows2.arrow;dy=0.53;dx=28;direction=south;notch=0;fontSize=20;strokeWidth=3;fillColor=#fad7ac;strokeColor=#b46504;rotation=-90;" vertex="1" parent="1">
          <mxGeometry x="320" y="762" width="30" height="62" as="geometry" />
        </mxCell>
        <mxCell id="nQd0Cg9sy-hqQfareskZ-99" value="" style="rounded=0;whiteSpace=wrap;html=1;fontSize=20;strokeWidth=3;fillColor=#b1ddf0;strokeColor=#10739e;" vertex="1" parent="1">
          <mxGeometry x="570" y="768" width="30" height="40" as="geometry" />
        </mxCell>
        <mxCell id="nQd0Cg9sy-hqQfareskZ-100" value="" style="rounded=0;whiteSpace=wrap;html=1;fontSize=20;strokeWidth=3;fillColor=#b1ddf0;strokeColor=#10739e;" vertex="1" parent="1">
          <mxGeometry x="607" y="768" width="30" height="40" as="geometry" />
        </mxCell>
        <mxCell id="nQd0Cg9sy-hqQfareskZ-101" value="" style="rounded=0;whiteSpace=wrap;html=1;fontSize=20;strokeWidth=3;fillColor=#b1ddf0;strokeColor=#10739e;" vertex="1" parent="1">
          <mxGeometry x="644" y="768" width="30" height="40" as="geometry" />
        </mxCell>
        <mxCell id="nQd0Cg9sy-hqQfareskZ-102" value="" style="html=1;shadow=0;dashed=0;align=center;verticalAlign=middle;shape=mxgraph.arrows2.arrow;dy=0.53;dx=28;direction=south;notch=0;fontSize=20;strokeWidth=3;fillColor=#fad7ac;strokeColor=#b46504;rotation=-90;" vertex="1" parent="1">
          <mxGeometry x="510" y="762" width="30" height="62" as="geometry" />
        </mxCell>
        <mxCell id="nQd0Cg9sy-hqQfareskZ-103" value="&lt;b&gt;&lt;font color=&quot;#4a7a72&quot;&gt;输入数据包&lt;/font&gt;&lt;/b&gt;" style="text;html=1;align=center;verticalAlign=middle;resizable=0;points=[];autosize=1;strokeColor=none;fontSize=20;fontColor=#FF0000;" vertex="1" parent="1">
          <mxGeometry x="157" y="726" width="120" height="30" as="geometry" />
        </mxCell>
        <mxCell id="nQd0Cg9sy-hqQfareskZ-104" value="&lt;b&gt;输出数据包&lt;/b&gt;" style="text;html=1;align=center;verticalAlign=middle;resizable=0;points=[];autosize=1;strokeColor=none;fontSize=20;fontColor=#4A7A72;" vertex="1" parent="1">
          <mxGeometry x="562" y="726" width="120" height="30" as="geometry" />
        </mxCell>
        <mxCell id="nQd0Cg9sy-hqQfareskZ-105" value="&lt;b&gt;&lt;font color=&quot;#4a7a72&quot;&gt;丢弃数据包&lt;/font&gt;&lt;/b&gt;" style="text;html=1;align=center;verticalAlign=middle;resizable=0;points=[];autosize=1;strokeColor=none;fontSize=20;fontColor=#FF0000;" vertex="1" parent="1">
          <mxGeometry x="475" y="890" width="120" height="30" as="geometry" />
        </mxCell>
        <mxCell id="nQd0Cg9sy-hqQfareskZ-107" value="" style="rounded=0;whiteSpace=wrap;html=1;fontSize=20;strokeWidth=3;fillColor=#b1ddf0;strokeColor=#10739e;" vertex="1" parent="1">
          <mxGeometry x="436.5" y="890" width="30" height="40" as="geometry" />
        </mxCell>
        <mxCell id="nQd0Cg9sy-hqQfareskZ-108" value="" style="rounded=0;whiteSpace=wrap;html=1;fontSize=20;strokeWidth=3;fillColor=#b1ddf0;strokeColor=#10739e;" vertex="1" parent="1">
          <mxGeometry x="397.5" y="890" width="30" height="40" as="geometry" />
        </mxCell>
        <mxCell id="nQd0Cg9sy-hqQfareskZ-109" value="" style="html=1;shadow=0;dashed=0;align=center;verticalAlign=middle;shape=mxgraph.arrows2.arrow;dy=0.53;dx=28;direction=south;notch=0;fontSize=20;strokeWidth=3;fillColor=#fad7ac;strokeColor=#b46504;rotation=0;" vertex="1" parent="1">
          <mxGeometry x="417" y="834" width="30" height="46" as="geometry" />
        </mxCell>
        <mxCell id="nQd0Cg9sy-hqQfareskZ-110" value="&lt;b&gt;300&lt;/b&gt;" style="rounded=1;whiteSpace=wrap;html=1;fontSize=20;fontColor=#4A7A72;strokeWidth=3;" vertex="1" parent="1">
          <mxGeometry x="220" y="1080" width="90" height="50" as="geometry" />
        </mxCell>
        <mxCell id="nQd0Cg9sy-hqQfareskZ-111" value="&lt;b&gt;300&lt;/b&gt;" style="rounded=1;whiteSpace=wrap;html=1;fontSize=20;fontColor=#4A7A72;strokeWidth=3;" vertex="1" parent="1">
          <mxGeometry x="221" y="1140" width="90" height="50" as="geometry" />
        </mxCell>
        <mxCell id="nQd0Cg9sy-hqQfareskZ-112" value="&lt;b&gt;300&lt;/b&gt;" style="rounded=1;whiteSpace=wrap;html=1;fontSize=20;fontColor=#4A7A72;strokeWidth=3;" vertex="1" parent="1">
          <mxGeometry x="221" y="1200" width="90" height="50" as="geometry" />
        </mxCell>
        <mxCell id="nQd0Cg9sy-hqQfareskZ-114" value="&lt;b&gt;300&lt;/b&gt;" style="rounded=1;whiteSpace=wrap;html=1;fontSize=20;fontColor=#4A7A72;strokeWidth=3;" vertex="1" parent="1">
          <mxGeometry x="221" y="1260" width="90" height="50" as="geometry" />
        </mxCell>
        <mxCell id="nQd0Cg9sy-hqQfareskZ-115" value="" style="shape=curlyBracket;whiteSpace=wrap;html=1;rounded=1;flipH=1;fontSize=20;fontColor=#4A7A72;strokeWidth=3;" vertex="1" parent="1">
          <mxGeometry x="325" y="1105" width="20" height="175" as="geometry" />
        </mxCell>
        <mxCell id="nQd0Cg9sy-hqQfareskZ-116" value="&lt;b&gt;&lt;font color=&quot;#ff0000&quot;&gt;1200&lt;/font&gt;&lt;/b&gt;" style="text;html=1;align=center;verticalAlign=middle;resizable=0;points=[];autosize=1;strokeColor=none;fontSize=20;fontColor=#4A7A72;" vertex="1" parent="1">
          <mxGeometry x="352" y="1177.5" width="60" height="30" as="geometry" />
        </mxCell>
        <mxCell id="nQd0Cg9sy-hqQfareskZ-117" value="" style="line;strokeWidth=1;direction=south;html=1;perimeter=backbonePerimeter;points=[];outlineConnect=0;fontSize=20;fontColor=#4A7A72;rotation=-40;" vertex="1" parent="1">
          <mxGeometry x="380" y="1177.5" width="10" height="30" as="geometry" />
        </mxCell>
        <mxCell id="nQd0Cg9sy-hqQfareskZ-119" value="" style="html=1;shadow=0;dashed=0;align=center;verticalAlign=middle;shape=mxgraph.arrows2.arrow;dy=0.53;dx=28;direction=south;notch=0;fontSize=20;strokeWidth=3;fillColor=#fad7ac;strokeColor=#b46504;rotation=-90;" vertex="1" parent="1">
          <mxGeometry x="442" y="1161.5" width="30" height="62" as="geometry" />
        </mxCell>
        <mxCell id="nQd0Cg9sy-hqQfareskZ-120" value="&lt;b&gt;249&lt;/b&gt;" style="rounded=1;whiteSpace=wrap;html=1;fontSize=20;fontColor=#4A7A72;strokeWidth=3;" vertex="1" parent="1">
          <mxGeometry x="500" y="1080" width="90" height="50" as="geometry" />
        </mxCell>
        <mxCell id="nQd0Cg9sy-hqQfareskZ-121" value="&lt;b&gt;249&lt;/b&gt;" style="rounded=1;whiteSpace=wrap;html=1;fontSize=20;fontColor=#4A7A72;strokeWidth=3;" vertex="1" parent="1">
          <mxGeometry x="501" y="1140" width="90" height="50" as="geometry" />
        </mxCell>
        <mxCell id="nQd0Cg9sy-hqQfareskZ-122" value="&lt;b&gt;249&lt;/b&gt;" style="rounded=1;whiteSpace=wrap;html=1;fontSize=20;fontColor=#4A7A72;strokeWidth=3;" vertex="1" parent="1">
          <mxGeometry x="501" y="1200" width="90" height="50" as="geometry" />
        </mxCell>
        <mxCell id="nQd0Cg9sy-hqQfareskZ-123" value="&lt;b&gt;249&lt;/b&gt;" style="rounded=1;whiteSpace=wrap;html=1;fontSize=20;fontColor=#4A7A72;strokeWidth=3;" vertex="1" parent="1">
          <mxGeometry x="501" y="1260" width="90" height="50" as="geometry" />
        </mxCell>
        <mxCell id="nQd0Cg9sy-hqQfareskZ-124" value="&lt;b&gt;&lt;font style=&quot;font-size: 23px&quot; color=&quot;#990000&quot;&gt;* 0.83&lt;/font&gt;&lt;/b&gt;" style="text;html=1;align=center;verticalAlign=middle;resizable=0;points=[];autosize=1;strokeColor=none;fontSize=20;fontColor=#4A7A72;" vertex="1" parent="1">
          <mxGeometry x="395" y="1147.5" width="80" height="30" as="geometry" />
        </mxCell>
        <mxCell id="nQd0Cg9sy-hqQfareskZ-127" value="" style="shape=curlyBracket;whiteSpace=wrap;html=1;rounded=1;flipH=1;fontSize=20;fontColor=#4A7A72;strokeWidth=3;" vertex="1" parent="1">
          <mxGeometry x="613" y="1110" width="20" height="175" as="geometry" />
        </mxCell>
        <mxCell id="nQd0Cg9sy-hqQfareskZ-128" value="&lt;font color=&quot;#ff0000&quot;&gt;996&lt;/font&gt;" style="text;html=1;align=center;verticalAlign=middle;resizable=0;points=[];autosize=1;strokeColor=none;fontSize=20;fontColor=#4A7A72;fontStyle=1" vertex="1" parent="1">
          <mxGeometry x="646" y="1187.5" width="50" height="30" as="geometry" />
        </mxCell>
        <mxCell id="nQd0Cg9sy-hqQfareskZ-129" value="" style="endArrow=classic;html=1;strokeWidth=3;dashed=1;" edge="1" parent="1">
          <mxGeometry width="50" height="50" relative="1" as="geometry">
            <mxPoint x="696" y="240" as="sourcePoint" />
            <mxPoint x="1076" y="240" as="targetPoint" />
          </mxGeometry>
        </mxCell>
        <mxCell id="nQd0Cg9sy-hqQfareskZ-130" value="" style="endArrow=none;html=1;strokeWidth=3;" edge="1" parent="1">
          <mxGeometry width="50" height="50" relative="1" as="geometry">
            <mxPoint x="756" y="240" as="sourcePoint" />
            <mxPoint x="756" y="220" as="targetPoint" />
          </mxGeometry>
        </mxCell>
        <mxCell id="nQd0Cg9sy-hqQfareskZ-131" value="" style="endArrow=none;html=1;strokeWidth=3;" edge="1" parent="1">
          <mxGeometry width="50" height="50" relative="1" as="geometry">
            <mxPoint x="876" y="240" as="sourcePoint" />
            <mxPoint x="876" y="220" as="targetPoint" />
          </mxGeometry>
        </mxCell>
        <mxCell id="nQd0Cg9sy-hqQfareskZ-132" value="" style="endArrow=none;html=1;strokeWidth=3;" edge="1" parent="1">
          <mxGeometry width="50" height="50" relative="1" as="geometry">
            <mxPoint x="986" y="240" as="sourcePoint" />
            <mxPoint x="986" y="220" as="targetPoint" />
          </mxGeometry>
        </mxCell>
        <mxCell id="nQd0Cg9sy-hqQfareskZ-133" value="&lt;font style=&quot;font-size: 18px&quot; face=&quot;JetBrains Mono&quot;&gt;&lt;b&gt;0:00&lt;/b&gt;&lt;/font&gt;" style="text;html=1;align=center;verticalAlign=middle;resizable=0;points=[];autosize=1;strokeColor=none;" vertex="1" parent="1">
          <mxGeometry x="726" y="190" width="60" height="20" as="geometry" />
        </mxCell>
        <mxCell id="nQd0Cg9sy-hqQfareskZ-134" value="&lt;font style=&quot;font-size: 18px&quot; face=&quot;JetBrains Mono&quot;&gt;&lt;b&gt;1:00&lt;/b&gt;&lt;/font&gt;" style="text;html=1;align=center;verticalAlign=middle;resizable=0;points=[];autosize=1;strokeColor=none;" vertex="1" parent="1">
          <mxGeometry x="876" y="190" width="60" height="20" as="geometry" />
        </mxCell>
        <mxCell id="nQd0Cg9sy-hqQfareskZ-135" value="&lt;font style=&quot;font-size: 18px&quot; face=&quot;JetBrains Mono&quot;&gt;&lt;b&gt;0:59&lt;/b&gt;&lt;/font&gt;" style="text;html=1;align=center;verticalAlign=middle;resizable=0;points=[];autosize=1;strokeColor=none;" vertex="1" parent="1">
          <mxGeometry x="816" y="190" width="60" height="20" as="geometry" />
        </mxCell>
        <mxCell id="nQd0Cg9sy-hqQfareskZ-136" value="" style="shape=curlyBracket;whiteSpace=wrap;html=1;rounded=1;flipH=1;direction=north;strokeWidth=3;" vertex="1" parent="1">
          <mxGeometry x="757" y="250" width="120" height="10" as="geometry" />
        </mxCell>
        <mxCell id="nQd0Cg9sy-hqQfareskZ-141" value="&lt;b style=&quot;color: rgb(255 , 0 , 0) ; font-size: 18px&quot;&gt;50&lt;/b&gt;" style="text;html=1;align=center;verticalAlign=middle;resizable=0;points=[];autosize=1;strokeColor=none;fontSize=20;fontColor=#4A7A72;" vertex="1" parent="1">
          <mxGeometry x="797" y="270" width="40" height="30" as="geometry" />
        </mxCell>
        <mxCell id="nQd0Cg9sy-hqQfareskZ-144" value="" style="endArrow=classic;html=1;fontSize=20;fontColor=#4A7A72;strokeWidth=3;" edge="1" parent="1">
          <mxGeometry width="50" height="50" relative="1" as="geometry">
            <mxPoint x="880" y="250" as="sourcePoint" />
            <mxPoint x="910" y="300" as="targetPoint" />
          </mxGeometry>
        </mxCell>
        <mxCell id="nQd0Cg9sy-hqQfareskZ-145" value="&lt;b style=&quot;color: rgb(255 , 0 , 0) ; font-size: 18px&quot;&gt;reset count&lt;/b&gt;" style="text;html=1;align=center;verticalAlign=middle;resizable=0;points=[];autosize=1;strokeColor=none;fontSize=20;fontColor=#4A7A72;" vertex="1" parent="1">
          <mxGeometry x="910" y="290" width="110" height="30" as="geometry" />
        </mxCell>
        <mxCell id="nQd0Cg9sy-hqQfareskZ-146" value="" style="line;strokeWidth=2;direction=south;html=1;fontSize=20;fontColor=#4A7A72;" vertex="1" parent="1">
          <mxGeometry x="900" y="440" width="10" height="230" as="geometry" />
        </mxCell>
        <mxCell id="nQd0Cg9sy-hqQfareskZ-150" value="" style="rounded=0;whiteSpace=wrap;html=1;fontSize=20;fontColor=#4A7A72;strokeWidth=1;" vertex="1" parent="1">
          <mxGeometry x="905" y="470" width="85" height="40" as="geometry" />
        </mxCell>
        <mxCell id="nQd0Cg9sy-hqQfareskZ-151" value="" style="rounded=0;whiteSpace=wrap;html=1;fontSize=20;fontColor=#4A7A72;strokeWidth=1;" vertex="1" parent="1">
          <mxGeometry x="990" y="470" width="85" height="40" as="geometry" />
        </mxCell>
        <mxCell id="nQd0Cg9sy-hqQfareskZ-152" value="" style="rounded=0;whiteSpace=wrap;html=1;fontSize=20;fontColor=#4A7A72;strokeWidth=1;" vertex="1" parent="1">
          <mxGeometry x="1075" y="470" width="85" height="40" as="geometry" />
        </mxCell>
        <mxCell id="nQd0Cg9sy-hqQfareskZ-153" value="" style="rounded=0;whiteSpace=wrap;html=1;fontSize=20;strokeWidth=1;fillColor=#bac8d3;strokeColor=#23445d;" vertex="1" parent="1">
          <mxGeometry x="1160" y="470" width="85" height="40" as="geometry" />
        </mxCell>
        <mxCell id="nQd0Cg9sy-hqQfareskZ-154" value="" style="rounded=0;whiteSpace=wrap;html=1;fontSize=20;strokeWidth=1;fillColor=#bac8d3;strokeColor=#23445d;" vertex="1" parent="1">
          <mxGeometry x="1240" y="470" width="85" height="40" as="geometry" />
        </mxCell>
        <mxCell id="nQd0Cg9sy-hqQfareskZ-155" value="" style="rounded=0;whiteSpace=wrap;html=1;fontSize=20;fontColor=#4A7A72;strokeWidth=1;" vertex="1" parent="1">
          <mxGeometry x="1325" y="470" width="85" height="40" as="geometry" />
        </mxCell>
        <mxCell id="nQd0Cg9sy-hqQfareskZ-156" value="" style="rounded=0;whiteSpace=wrap;html=1;fontSize=20;fontColor=#4A7A72;strokeWidth=1;" vertex="1" parent="1">
          <mxGeometry x="1410" y="470" width="85" height="40" as="geometry" />
        </mxCell>
        <mxCell id="nQd0Cg9sy-hqQfareskZ-157" value="" style="rounded=0;whiteSpace=wrap;html=1;fontSize=20;fontColor=#4A7A72;strokeWidth=1;" vertex="1" parent="1">
          <mxGeometry x="1495" y="470" width="85" height="40" as="geometry" />
        </mxCell>
        <mxCell id="nQd0Cg9sy-hqQfareskZ-166" value="&lt;b&gt;&lt;font color=&quot;#ff0000&quot;&gt;0：00&lt;/font&gt;&lt;/b&gt;" style="text;html=1;align=center;verticalAlign=middle;resizable=0;points=[];autosize=1;strokeColor=none;fontSize=20;fontColor=#4A7A72;" vertex="1" parent="1">
          <mxGeometry x="900" y="670" width="70" height="30" as="geometry" />
        </mxCell>
        <mxCell id="nQd0Cg9sy-hqQfareskZ-167" value="" style="rounded=0;whiteSpace=wrap;html=1;fontSize=20;fontColor=#4A7A72;strokeWidth=2;fillColor=none;dashed=1;strokeColor=#EA6B66;" vertex="1" parent="1">
          <mxGeometry x="899" y="461" width="431" height="60" as="geometry" />
        </mxCell>
        <mxCell id="nQd0Cg9sy-hqQfareskZ-169" value="&lt;b&gt;&lt;font color=&quot;#ff0000&quot;&gt;1：00&lt;/font&gt;&lt;/b&gt;" style="text;html=1;align=center;verticalAlign=middle;resizable=0;points=[];autosize=1;strokeColor=none;fontSize=20;fontColor=#4A7A72;" vertex="1" parent="1">
          <mxGeometry x="1320" y="670" width="70" height="30" as="geometry" />
        </mxCell>
        <mxCell id="nQd0Cg9sy-hqQfareskZ-171" value="" style="line;strokeWidth=2;direction=south;html=1;fontSize=20;fontColor=#4A7A72;dashed=1;dashPattern=1 2;" vertex="1" parent="1">
          <mxGeometry x="1320" y="435" width="10" height="230" as="geometry" />
        </mxCell>
        <mxCell id="nQd0Cg9sy-hqQfareskZ-172" value="" style="rounded=0;whiteSpace=wrap;html=1;fontSize=20;strokeWidth=1;fillColor=#bac8d3;strokeColor=#23445d;" vertex="1" parent="1">
          <mxGeometry x="906" y="470" width="95" height="40" as="geometry" />
        </mxCell>
        <mxCell id="nQd0Cg9sy-hqQfareskZ-173" value="" style="rounded=0;whiteSpace=wrap;html=1;fontSize=20;strokeWidth=1;fillColor=#bac8d3;strokeColor=#23445d;" vertex="1" parent="1">
          <mxGeometry x="995" y="470" width="85" height="40" as="geometry" />
        </mxCell>
        <mxCell id="nQd0Cg9sy-hqQfareskZ-174" value="" style="rounded=0;whiteSpace=wrap;html=1;fontSize=20;strokeWidth=1;fillColor=#bac8d3;strokeColor=#23445d;" vertex="1" parent="1">
          <mxGeometry x="1080" y="470" width="85" height="40" as="geometry" />
        </mxCell>
        <mxCell id="nQd0Cg9sy-hqQfareskZ-158" value="" style="rounded=0;whiteSpace=wrap;html=1;fontSize=20;fontColor=#4A7A72;strokeWidth=1;" vertex="1" parent="1">
          <mxGeometry x="905" y="590" width="85" height="40" as="geometry" />
        </mxCell>
        <mxCell id="nQd0Cg9sy-hqQfareskZ-159" value="" style="rounded=0;whiteSpace=wrap;html=1;fontSize=20;strokeWidth=1;fillColor=#bac8d3;strokeColor=#23445d;" vertex="1" parent="1">
          <mxGeometry x="990" y="590" width="85" height="40" as="geometry" />
        </mxCell>
        <mxCell id="nQd0Cg9sy-hqQfareskZ-160" value="" style="rounded=0;whiteSpace=wrap;html=1;fontSize=20;strokeWidth=1;fillColor=#bac8d3;strokeColor=#23445d;" vertex="1" parent="1">
          <mxGeometry x="1075" y="590" width="85" height="40" as="geometry" />
        </mxCell>
        <mxCell id="nQd0Cg9sy-hqQfareskZ-161" value="" style="rounded=0;whiteSpace=wrap;html=1;fontSize=20;strokeWidth=1;fillColor=#bac8d3;strokeColor=#23445d;" vertex="1" parent="1">
          <mxGeometry x="1160" y="590" width="85" height="40" as="geometry" />
        </mxCell>
        <mxCell id="nQd0Cg9sy-hqQfareskZ-162" value="" style="rounded=0;whiteSpace=wrap;html=1;fontSize=20;strokeWidth=1;fillColor=#d0cee2;strokeColor=#56517e;" vertex="1" parent="1">
          <mxGeometry x="1240" y="590" width="85" height="40" as="geometry" />
        </mxCell>
        <mxCell id="nQd0Cg9sy-hqQfareskZ-163" value="" style="rounded=0;whiteSpace=wrap;html=1;fontSize=20;strokeWidth=1;fillColor=#fad9d5;strokeColor=#ae4132;" vertex="1" parent="1">
          <mxGeometry x="1325" y="590" width="85" height="40" as="geometry" />
        </mxCell>
        <mxCell id="nQd0Cg9sy-hqQfareskZ-164" value="" style="rounded=0;whiteSpace=wrap;html=1;fontSize=20;fontColor=#4A7A72;strokeWidth=1;" vertex="1" parent="1">
          <mxGeometry x="1410" y="590" width="85" height="40" as="geometry" />
        </mxCell>
        <mxCell id="nQd0Cg9sy-hqQfareskZ-165" value="" style="rounded=0;whiteSpace=wrap;html=1;fontSize=20;fontColor=#4A7A72;strokeWidth=1;" vertex="1" parent="1">
          <mxGeometry x="1495" y="590" width="85" height="40" as="geometry" />
        </mxCell>
        <mxCell id="nQd0Cg9sy-hqQfareskZ-168" value="" style="rounded=0;whiteSpace=wrap;html=1;fontSize=20;fontColor=#4A7A72;strokeWidth=2;fillColor=none;dashed=1;strokeColor=#EA6B66;" vertex="1" parent="1">
          <mxGeometry x="985" y="580" width="431" height="60" as="geometry" />
        </mxCell>
        <mxCell id="nQd0Cg9sy-hqQfareskZ-177" value="" style="edgeStyle=orthogonalEdgeStyle;rounded=0;orthogonalLoop=1;jettySize=auto;html=1;fontSize=20;fontColor=#4A7A72;strokeWidth=3;" edge="1" parent="1" source="nQd0Cg9sy-hqQfareskZ-175" target="nQd0Cg9sy-hqQfareskZ-176">
          <mxGeometry relative="1" as="geometry" />
        </mxCell>
        <mxCell id="nQd0Cg9sy-hqQfareskZ-175" value="获取参数&lt;br&gt;（限流 key， 限流大小）" style="rounded=1;whiteSpace=wrap;html=1;fontSize=20;fontColor=#4A7A72;strokeColor=#EA6B66;strokeWidth=2;fillColor=none;fontStyle=1" vertex="1" parent="1">
          <mxGeometry x="1063" y="890" width="227" height="60" as="geometry" />
        </mxCell>
        <mxCell id="nQd0Cg9sy-hqQfareskZ-179" value="" style="edgeStyle=orthogonalEdgeStyle;rounded=0;orthogonalLoop=1;jettySize=auto;html=1;fontSize=20;fontColor=#4A7A72;strokeWidth=3;" edge="1" parent="1" source="nQd0Cg9sy-hqQfareskZ-176" target="nQd0Cg9sy-hqQfareskZ-178">
          <mxGeometry relative="1" as="geometry" />
        </mxCell>
        <mxCell id="nQd0Cg9sy-hqQfareskZ-176" value="获取当前流量值" style="whiteSpace=wrap;html=1;rounded=1;fontSize=20;fontColor=#4A7A72;fontStyle=1;strokeColor=#EA6B66;strokeWidth=2;fillColor=none;" vertex="1" parent="1">
          <mxGeometry x="1084.75" y="1000" width="183.5" height="60" as="geometry" />
        </mxCell>
        <mxCell id="nQd0Cg9sy-hqQfareskZ-183" value="" style="edgeStyle=orthogonalEdgeStyle;rounded=0;orthogonalLoop=1;jettySize=auto;html=1;fontSize=20;fontColor=#4A7A72;strokeWidth=3;" edge="1" parent="1" source="nQd0Cg9sy-hqQfareskZ-178" target="nQd0Cg9sy-hqQfareskZ-182">
          <mxGeometry relative="1" as="geometry" />
        </mxCell>
        <mxCell id="nQd0Cg9sy-hqQfareskZ-186" value="" style="edgeStyle=orthogonalEdgeStyle;rounded=0;orthogonalLoop=1;jettySize=auto;html=1;fontSize=20;fontColor=#4A7A72;strokeWidth=3;" edge="1" parent="1" source="nQd0Cg9sy-hqQfareskZ-178" target="nQd0Cg9sy-hqQfareskZ-185">
          <mxGeometry relative="1" as="geometry" />
        </mxCell>
        <mxCell id="nQd0Cg9sy-hqQfareskZ-178" value="是否超出" style="rhombus;whiteSpace=wrap;html=1;rounded=1;fontSize=20;fontColor=#4A7A72;fontStyle=1;strokeColor=#EA6B66;strokeWidth=2;fillColor=none;" vertex="1" parent="1">
          <mxGeometry x="1114.75" y="1110" width="123.5" height="80" as="geometry" />
        </mxCell>
        <mxCell id="nQd0Cg9sy-hqQfareskZ-182" value="拒绝" style="whiteSpace=wrap;html=1;rounded=1;fontSize=20;fontColor=#4A7A72;fontStyle=1;strokeColor=#EA6B66;strokeWidth=2;fillColor=none;" vertex="1" parent="1">
          <mxGeometry x="1116.5" y="1240" width="120" height="60" as="geometry" />
        </mxCell>
        <mxCell id="nQd0Cg9sy-hqQfareskZ-188" value="" style="edgeStyle=orthogonalEdgeStyle;rounded=0;orthogonalLoop=1;jettySize=auto;html=1;fontSize=20;fontColor=#4A7A72;strokeWidth=3;" edge="1" parent="1" source="nQd0Cg9sy-hqQfareskZ-185" target="nQd0Cg9sy-hqQfareskZ-187">
          <mxGeometry relative="1" as="geometry" />
        </mxCell>
        <mxCell id="nQd0Cg9sy-hqQfareskZ-185" value="key 值 + 1" style="rounded=1;whiteSpace=wrap;html=1;fontSize=20;fontColor=#4A7A72;fontStyle=1;strokeColor=#EA6B66;strokeWidth=2;fillColor=none;" vertex="1" parent="1">
          <mxGeometry x="1320" y="1120" width="120" height="60" as="geometry" />
        </mxCell>
        <mxCell id="nQd0Cg9sy-hqQfareskZ-190" value="" style="edgeStyle=orthogonalEdgeStyle;rounded=0;orthogonalLoop=1;jettySize=auto;html=1;fontSize=20;fontColor=#4A7A72;strokeWidth=3;" edge="1" parent="1" source="nQd0Cg9sy-hqQfareskZ-187" target="nQd0Cg9sy-hqQfareskZ-189">
          <mxGeometry relative="1" as="geometry" />
        </mxCell>
        <mxCell id="nQd0Cg9sy-hqQfareskZ-187" value="设置过期时间" style="whiteSpace=wrap;html=1;rounded=1;fontSize=20;fontColor=#4A7A72;fontStyle=1;strokeColor=#EA6B66;strokeWidth=2;fillColor=none;" vertex="1" parent="1">
          <mxGeometry x="1310" y="1240" width="140" height="60" as="geometry" />
        </mxCell>
        <mxCell id="nQd0Cg9sy-hqQfareskZ-189" value="放行" style="whiteSpace=wrap;html=1;rounded=1;fontSize=20;fontColor=#4A7A72;fontStyle=1;strokeColor=#EA6B66;strokeWidth=2;fillColor=none;" vertex="1" parent="1">
          <mxGeometry x="1320" y="1380" width="120" height="60" as="geometry" />
        </mxCell>
      </root>
    </mxGraphModel>
  </diagram>
</mxfile>
